<?xml version="1.0" encoding="utf-8"?>

<!DOCTYPE svg PUBLIC "-//W3C//DTD SVG 1.1//EN" "http://www.w3.org/Graphics/SVG/1.1/DTD/svg11.dtd">
<svg version="1.1" id="Layer_1" xmlns="http://www.w3.org/2000/svg" xmlns:xlink="http://www.w3.org/1999/xlink" x="0px" y="0px"
	 viewBox="0 0 1262 1654" enable-background="new 0 0 1262 1654" xml:space="preserve">
<g>
	<g>
		<g>
			<path d="M130.884,843.794c-33.341-5.536-66.682-11.072-100.023-16.609c0-0.124,0-0.248,0-0.371c33.341,0,66.682,0,100.023,0
				C130.884,832.474,130.884,838.134,130.884,843.794z"/>
			<path fill="#FFFFFF" d="M230.907,860.403c-33.341-5.536-66.682-11.072-100.023-16.609c0-5.66,0-11.32,0-16.98
				c33.341,0,66.682,0,100.023,0C230.907,838.011,230.907,849.207,230.907,860.403z"/>
			<path d="M330.93,877.012c-33.341-5.536-66.682-11.072-100.023-16.609c0-11.196,0-22.392,0-33.589c33.341,0,66.682,0,100.023,0
				C330.93,843.547,330.93,860.279,330.93,877.012z"/>
			<path fill="#FFFFFF" d="M430.954,893.62c-33.341-5.536-66.682-11.072-100.023-16.609c0-16.732,0-33.465,0-50.197
				c33.341,0,66.682,0,100.023,0C430.954,849.083,430.954,871.352,430.954,893.62z"/>
			<path d="M530.977,910.229c-33.341-5.536-66.682-11.072-100.023-16.609c0-22.269,0-44.537,0-66.806c33.341,0,66.682,0,100.023,0
				C530.977,854.619,530.977,882.424,530.977,910.229z"/>
			<path fill="#FFFFFF" d="M631,926.838c-33.341-5.536-66.682-11.072-100.023-16.609c0-27.805,0-55.61,0-83.415
				c33.341,0,66.682,0,100.023,0C631,860.155,631,893.496,631,926.838z"/>
			<path d="M731.023,910.229c-33.341,5.536-66.682,11.072-100.023,16.609c0-33.341,0-66.682,0-100.023c33.341,0,66.682,0,100.023,0
				C731.023,854.619,731.023,882.424,731.023,910.229z"/>
			<path fill="#FFFFFF" d="M831.046,893.62c-33.341,5.536-66.682,11.072-100.023,16.609c0-27.805,0-55.61,0-83.415
				c33.341,0,66.682,0,100.023,0C831.046,849.083,831.046,871.352,831.046,893.62z"/>
			<path d="M931.07,877.012c-33.341,5.536-66.682,11.072-100.023,16.609c0-22.269,0-44.537,0-66.806c33.341,0,66.682,0,100.023,0
				C931.07,843.547,931.07,860.279,931.07,877.012z"/>
			<path fill="#FFFFFF" d="M1031.093,860.403c-33.341,5.536-66.682,11.072-100.023,16.609c0-16.732,0-33.465,0-50.197
				c33.341,0,66.682,0,100.023,0C1031.093,838.011,1031.093,849.207,1031.093,860.403z"/>
			<path d="M1131.116,843.794c-33.341,5.536-66.682,11.072-100.023,16.609c0-11.196,0-22.392,0-33.589c33.341,0,66.682,0,100.023,0
				C1131.116,832.474,1131.116,838.134,1131.116,843.794z"/>
			<path fill="#FFFFFF" d="M1231.139,827.186c-33.341,5.536-66.682,11.072-100.023,16.609c0-5.66,0-11.32,0-16.98
				c33.341,0,66.682,0,100.023,0C1231.139,826.938,1231.139,827.062,1231.139,827.186z"/>
		</g>
		<g>
			<path d="M1131.116,860.774c33.341-11.072,66.682-22.145,100.023-33.217c0-0.124,0-0.248,0-0.371
				c-33.341,5.536-66.682,11.072-100.023,16.609C1131.116,849.454,1131.116,855.114,1131.116,860.774z"/>
			<path fill="#FFFFFF" d="M1031.093,893.992c33.341-11.072,66.682-22.145,100.023-33.217c0-5.66,0-11.32,0-16.98
				c-33.341,5.536-66.682,11.072-100.023,16.609C1031.093,871.599,1031.093,882.795,1031.093,893.992z"/>
			<path d="M931.07,927.209c33.341-11.072,66.682-22.145,100.023-33.217c0-11.196,0-22.392,0-33.589
				c-33.341,5.536-66.682,11.072-100.023,16.609C931.07,893.744,931.07,910.476,931.07,927.209z"/>
			<path fill="#FFFFFF" d="M831.046,960.426c33.341-11.072,66.682-22.145,100.023-33.217c0-16.732,0-33.465,0-50.197
				c-33.341,5.536-66.682,11.072-100.023,16.609C831.046,915.889,831.046,938.158,831.046,960.426z"/>
			<path d="M731.023,993.643c33.341-11.072,66.682-22.145,100.023-33.217c0-22.269,0-44.537,0-66.806
				c-33.341,5.536-66.682,11.072-100.023,16.609C731.023,938.034,731.023,965.839,731.023,993.643z"/>
			<path fill="#FFFFFF" d="M631,1026.861c33.341-11.072,66.682-22.145,100.023-33.217c0-27.805,0-55.61,0-83.415
				c-33.341,5.536-66.682,11.072-100.023,16.609C631,960.179,631,993.52,631,1026.861z"/>
			<path d="M530.977,993.643c33.341,11.072,66.682,22.145,100.023,33.217c0-33.341,0-66.682,0-100.023
				c-33.341-5.536-66.682-11.072-100.023-16.609C530.977,938.034,530.977,965.839,530.977,993.643z"/>
			<path fill="#FFFFFF" d="M430.954,960.426c33.341,11.072,66.682,22.145,100.023,33.217c0-27.805,0-55.61,0-83.415
				c-33.341-5.536-66.682-11.072-100.023-16.609C430.954,915.889,430.954,938.158,430.954,960.426z"/>
			<path d="M330.93,927.209c33.341,11.072,66.682,22.145,100.023,33.217c0-22.269,0-44.537,0-66.806
				c-33.341-5.536-66.682-11.072-100.023-16.609C330.93,893.744,330.93,910.476,330.93,927.209z"/>
			<path fill="#FFFFFF" d="M230.907,893.992c33.341,11.072,66.682,22.145,100.023,33.217c0-16.732,0-33.465,0-50.197
				c-33.341-5.536-66.682-11.072-100.023-16.609C230.907,871.599,230.907,882.795,230.907,893.992z"/>
			<path d="M130.884,860.774c33.341,11.072,66.682,22.145,100.023,33.217c0-11.196,0-22.392,0-33.589
				c-33.341-5.536-66.682-11.072-100.023-16.609C130.884,849.454,130.884,855.114,130.884,860.774z"/>
			<path fill="#FFFFFF" d="M30.861,827.557c33.341,11.072,66.682,22.145,100.023,33.217c0-5.66,0-11.32,0-16.98
				c-33.341-5.536-66.682-11.072-100.023-16.609C30.861,827.309,30.861,827.433,30.861,827.557z"/>
		</g>
		<g>
			<path d="M130.884,877.754c-33.341-16.609-66.682-33.217-100.023-49.826c0-0.124,0-0.248,0-0.371
				c33.341,11.072,66.682,22.145,100.023,33.217C130.884,866.434,130.884,872.094,130.884,877.754z"/>
			<path fill="#FFFFFF" d="M230.907,927.58c-33.341-16.609-66.682-33.217-100.023-49.826c0-5.66,0-11.32,0-16.98
				c33.341,11.072,66.682,22.145,100.023,33.217C230.907,905.188,230.907,916.384,230.907,927.58z"/>
			<path d="M330.93,977.406c-33.341-16.609-66.682-33.217-100.023-49.826c0-11.196,0-22.392,0-33.589
				c33.341,11.072,66.682,22.145,100.023,33.217C330.93,943.941,330.93,960.674,330.93,977.406z"/>
			<path fill="#FFFFFF" d="M430.954,1027.232c-33.341-16.609-66.682-33.217-100.023-49.826c0-16.732,0-33.465,0-50.197
				c33.341,11.072,66.682,22.145,100.023,33.217C430.954,982.695,430.954,1004.963,430.954,1027.232z"/>
			<path d="M530.977,1077.058c-33.341-16.609-66.682-33.217-100.023-49.826c0-22.269,0-44.537,0-66.806
				c33.341,11.072,66.682,22.145,100.023,33.217C530.977,1021.448,530.977,1049.253,530.977,1077.058z"/>
			<path fill="#FFFFFF" d="M631,1126.884c-33.341-16.609-66.682-33.217-100.023-49.826c0-27.805,0-55.61,0-83.415
				c33.341,11.072,66.682,22.145,100.023,33.217C631,1060.202,631,1093.543,631,1126.884z"/>
			<path d="M731.023,1077.058c-33.341,16.609-66.682,33.217-100.023,49.826c0-33.341,0-66.682,0-100.023
				c33.341-11.072,66.682-22.145,100.023-33.217C731.023,1021.448,731.023,1049.253,731.023,1077.058z"/>
			<path fill="#FFFFFF" d="M831.046,1027.232c-33.341,16.609-66.682,33.217-100.023,49.826c0-27.805,0-55.61,0-83.415
				c33.341-11.072,66.682-22.145,100.023-33.217C831.046,982.695,831.046,1004.963,831.046,1027.232z"/>
			<path d="M931.07,977.406c-33.341,16.609-66.682,33.217-100.023,49.826c0-22.269,0-44.537,0-66.806
				c33.341-11.072,66.682-22.145,100.023-33.217C931.07,943.941,931.07,960.674,931.07,977.406z"/>
			<path fill="#FFFFFF" d="M1031.093,927.58c-33.341,16.609-66.682,33.217-100.023,49.826c0-16.732,0-33.465,0-50.197
				c33.341-11.072,66.682-22.145,100.023-33.217C1031.093,905.188,1031.093,916.384,1031.093,927.58z"/>
			<path d="M1131.116,877.754c-33.341,16.609-66.682,33.217-100.023,49.826c0-11.196,0-22.392,0-33.589
				c33.341-11.072,66.682-22.145,100.023-33.217C1131.116,866.434,1131.116,872.094,1131.116,877.754z"/>
			<path fill="#FFFFFF" d="M1231.139,827.928c-33.341,16.609-66.682,33.217-100.023,49.826c0-5.66,0-11.32,0-16.98
				c33.341-11.072,66.682-22.145,100.023-33.217C1231.139,827.681,1231.139,827.805,1231.139,827.928z"/>
		</g>
		<g>
			<path d="M1131.116,894.734c33.341-22.145,66.682-44.29,100.023-66.435c0-0.124,0-0.248,0-0.371
				c-33.341,16.609-66.682,33.217-100.023,49.826C1131.116,883.414,1131.116,889.074,1131.116,894.734z"/>
			<path fill="#FFFFFF" d="M1031.093,961.169c33.341-22.145,66.682-44.29,100.023-66.435c0-5.66,0-11.32,0-16.98
				c-33.341,16.609-66.682,33.217-100.023,49.826C1031.093,938.776,1031.093,949.973,1031.093,961.169z"/>
			<path d="M931.07,1027.604c33.341-22.145,66.682-44.29,100.023-66.435c0-11.196,0-22.392,0-33.589
				c-33.341,16.609-66.682,33.217-100.023,49.826C931.07,994.139,931.07,1010.871,931.07,1027.604z"/>
			<path fill="#FFFFFF" d="M831.046,1094.038c33.341-22.145,66.682-44.29,100.023-66.435c0-16.732,0-33.465,0-50.197
				c-33.341,16.609-66.682,33.217-100.023,49.826C831.046,1049.501,831.046,1071.769,831.046,1094.038z"/>
			<path d="M731.023,1160.473c33.341-22.145,66.682-44.29,100.023-66.435c0-22.269,0-44.537,0-66.806
				c-33.341,16.609-66.682,33.217-100.023,49.826C731.023,1104.863,731.023,1132.668,731.023,1160.473z"/>
			<path fill="#FFFFFF" d="M631,1226.907c33.341-22.145,66.682-44.29,100.023-66.434c0-27.805,0-55.61,0-83.415
				c-33.341,16.609-66.682,33.217-100.023,49.826C631,1160.225,631,1193.566,631,1226.907z"/>
			<path d="M530.977,1160.473c33.341,22.145,66.682,44.29,100.023,66.434c0-33.341,0-66.682,0-100.023
				c-33.341-16.609-66.682-33.217-100.023-49.826C530.977,1104.863,530.977,1132.668,530.977,1160.473z"/>
			<path fill="#FFFFFF" d="M430.954,1094.038c33.341,22.145,66.682,44.29,100.023,66.435c0-27.805,0-55.61,0-83.415
				c-33.341-16.609-66.682-33.217-100.023-49.826C430.954,1049.501,430.954,1071.769,430.954,1094.038z"/>
			<path d="M330.93,1027.604c33.341,22.145,66.682,44.29,100.023,66.435c0-22.269,0-44.537,0-66.806
				c-33.341-16.609-66.682-33.217-100.023-49.826C330.93,994.139,330.93,1010.871,330.93,1027.604z"/>
			<path fill="#FFFFFF" d="M230.907,961.169c33.341,22.145,66.682,44.29,100.023,66.435c0-16.732,0-33.465,0-50.197
				c-33.341-16.609-66.682-33.217-100.023-49.826C230.907,938.776,230.907,949.973,230.907,961.169z"/>
			<path d="M130.884,894.734c33.341,22.145,66.682,44.29,100.023,66.435c0-11.196,0-22.392,0-33.589
				c-33.341-16.609-66.682-33.217-100.023-49.826C130.884,883.414,130.884,889.074,130.884,894.734z"/>
			<path fill="#FFFFFF" d="M30.861,828.3c33.341,22.145,66.682,44.29,100.023,66.435c0-5.66,0-11.32,0-16.98
				c-33.341-16.609-66.682-33.217-100.023-49.826C30.861,828.052,30.861,828.176,30.861,828.3z"/>
		</g>
		<g>
			<path d="M130.884,911.714c-33.341-27.681-66.682-55.362-100.023-83.043c0-0.124,0-0.248,0-0.371
				c33.341,22.145,66.682,44.29,100.023,66.435C130.884,900.394,130.884,906.054,130.884,911.714z"/>
			<path fill="#FFFFFF" d="M230.907,994.758c-33.341-27.681-66.682-55.362-100.023-83.043c0-5.66,0-11.32,0-16.98
				c33.341,22.145,66.682,44.29,100.023,66.435C230.907,972.365,230.907,983.561,230.907,994.758z"/>
			<path d="M330.93,1077.801c-33.341-27.681-66.682-55.362-100.023-83.043c0-11.196,0-22.392,0-33.589
				c33.341,22.145,66.682,44.29,100.023,66.435C330.93,1044.336,330.93,1061.068,330.93,1077.801z"/>
			<path fill="#FFFFFF" d="M430.954,1160.844c-33.341-27.681-66.682-55.362-100.023-83.043c0-16.732,0-33.465,0-50.197
				c33.341,22.145,66.682,44.29,100.023,66.435C430.954,1116.307,430.954,1138.575,430.954,1160.844z"/>
			<path d="M530.977,1243.887c-33.341-27.681-66.682-55.362-100.023-83.043c0-22.269,0-44.537,0-66.806
				c33.341,22.145,66.682,44.29,100.023,66.435C530.977,1188.277,530.977,1216.082,530.977,1243.887z"/>
			<path fill="#FFFFFF" d="M631,1326.93c-33.341-27.681-66.682-55.362-100.023-83.043c0-27.805,0-55.61,0-83.415
				c33.341,22.145,66.682,44.29,100.023,66.434C631,1260.248,631,1293.589,631,1326.93z"/>
			<path d="M731.023,1243.887c-33.341,27.681-66.682,55.362-100.023,83.043c0-33.341,0-66.682,0-100.023
				c33.341-22.145,66.682-44.29,100.023-66.434C731.023,1188.277,731.023,1216.082,731.023,1243.887z"/>
			<path fill="#FFFFFF" d="M831.046,1160.844c-33.341,27.681-66.682,55.362-100.023,83.043c0-27.805,0-55.61,0-83.415
				c33.341-22.145,66.682-44.29,100.023-66.435C831.046,1116.307,831.046,1138.575,831.046,1160.844z"/>
			<path d="M931.07,1077.801c-33.341,27.681-66.682,55.362-100.023,83.043c0-22.269,0-44.537,0-66.806
				c33.341-22.145,66.682-44.29,100.023-66.435C931.07,1044.336,931.07,1061.068,931.07,1077.801z"/>
			<path fill="#FFFFFF" d="M1031.093,994.758c-33.341,27.681-66.682,55.362-100.023,83.043c0-16.732,0-33.465,0-50.197
				c33.341-22.145,66.682-44.29,100.023-66.435C1031.093,972.365,1031.093,983.561,1031.093,994.758z"/>
			<path d="M1131.116,911.714c-33.341,27.681-66.682,55.362-100.023,83.043c0-11.196,0-22.392,0-33.589
				c33.341-22.145,66.682-44.29,100.023-66.435C1131.116,900.394,1131.116,906.054,1131.116,911.714z"/>
			<path fill="#FFFFFF" d="M1231.139,828.671c-33.341,27.681-66.682,55.362-100.023,83.043c0-5.66,0-11.32,0-16.98
				c33.341-22.145,66.682-44.29,100.023-66.435C1231.139,828.424,1231.139,828.547,1231.139,828.671z"/>
		</g>
		<g>
			<path d="M1131.116,928.694c33.341-33.217,66.682-66.435,100.023-99.652c0-0.124,0-0.248,0-0.371
				c-33.341,27.681-66.682,55.362-100.023,83.043C1131.116,917.374,1131.116,923.034,1131.116,928.694z"/>
			<path fill="#FFFFFF" d="M1031.093,1028.346c33.341-33.217,66.682-66.435,100.023-99.652c0-5.66,0-11.32,0-16.98
				c-33.341,27.681-66.682,55.362-100.023,83.043C1031.093,1005.954,1031.093,1017.15,1031.093,1028.346z"/>
			<path d="M931.07,1127.998c33.341-33.217,66.682-66.435,100.023-99.652c0-11.196,0-22.392,0-33.589
				c-33.341,27.681-66.682,55.362-100.023,83.043C931.07,1094.533,931.07,1111.266,931.07,1127.998z"/>
			<path fill="#FFFFFF" d="M831.046,1227.65c33.341-33.217,66.682-66.435,100.023-99.652c0-16.732,0-33.465,0-50.197
				c-33.341,27.681-66.682,55.362-100.023,83.043C831.046,1183.113,831.046,1205.381,831.046,1227.65z"/>
			<path d="M731.023,1327.302c33.341-33.217,66.682-66.435,100.023-99.652c0-22.269,0-44.537,0-66.806
				c-33.341,27.681-66.682,55.362-100.023,83.043C731.023,1271.692,731.023,1299.497,731.023,1327.302z"/>
			<path fill="#FFFFFF" d="M631,1426.954c33.341-33.217,66.682-66.435,100.023-99.652c0-27.805,0-55.61,0-83.415
				c-33.341,27.681-66.682,55.362-100.023,83.043C631,1360.271,631,1393.613,631,1426.954z"/>
			<path d="M530.977,1327.302c33.341,33.217,66.682,66.435,100.023,99.652c0-33.341,0-66.682,0-100.023
				c-33.341-27.681-66.682-55.362-100.023-83.043C530.977,1271.692,530.977,1299.497,530.977,1327.302z"/>
			<path fill="#FFFFFF" d="M430.954,1227.65c33.341,33.217,66.682,66.435,100.023,99.652c0-27.805,0-55.61,0-83.415
				c-33.341-27.681-66.682-55.362-100.023-83.043C430.954,1183.113,430.954,1205.381,430.954,1227.65z"/>
			<path d="M330.93,1127.998c33.341,33.217,66.682,66.435,100.023,99.652c0-22.269,0-44.537,0-66.806
				c-33.341-27.681-66.682-55.362-100.023-83.043C330.93,1094.533,330.93,1111.266,330.93,1127.998z"/>
			<path fill="#FFFFFF" d="M230.907,1028.346c33.341,33.217,66.682,66.435,100.023,99.652c0-16.732,0-33.465,0-50.197
				c-33.341-27.681-66.682-55.362-100.023-83.043C230.907,1005.954,230.907,1017.15,230.907,1028.346z"/>
			<path d="M130.884,928.694c33.341,33.217,66.682,66.435,100.023,99.652c0-11.196,0-22.392,0-33.589
				c-33.341-27.681-66.682-55.362-100.023-83.043C130.884,917.374,130.884,923.034,130.884,928.694z"/>
			<path fill="#FFFFFF" d="M30.861,829.043c33.341,33.217,66.682,66.435,100.023,99.652c0-5.66,0-11.32,0-16.98
				c-33.341-27.681-66.682-55.362-100.023-83.043C30.861,828.795,30.861,828.919,30.861,829.043z"/>
		</g>
		<g>
			<path d="M130.884,945.674c-33.341-38.753-66.682-77.507-100.023-116.26c0-0.124,0-0.248,0-0.371
				c33.341,33.217,66.682,66.435,100.023,99.652C130.884,934.354,130.884,940.014,130.884,945.674z"/>
			<path fill="#FFFFFF" d="M230.907,1061.935c-33.341-38.754-66.682-77.507-100.023-116.261c0-5.66,0-11.32,0-16.98
				c33.341,33.217,66.682,66.435,100.023,99.652C230.907,1039.542,230.907,1050.739,230.907,1061.935z"/>
			<path d="M330.93,1178.195c-33.341-38.753-66.682-77.507-100.023-116.26c0-11.196,0-22.392,0-33.589
				c33.341,33.217,66.682,66.435,100.023,99.652C330.93,1144.73,330.93,1161.463,330.93,1178.195z"/>
			<path fill="#FFFFFF" d="M430.954,1294.456c-33.341-38.753-66.682-77.507-100.023-116.26c0-16.732,0-33.465,0-50.197
				c33.341,33.217,66.682,66.435,100.023,99.652C430.954,1249.919,430.954,1272.187,430.954,1294.456z"/>
			<path d="M530.977,1410.716c-33.341-38.754-66.682-77.507-100.023-116.26c0-22.269,0-44.537,0-66.806
				c33.341,33.217,66.682,66.435,100.023,99.652C530.977,1355.107,530.977,1382.911,530.977,1410.716z"/>
			<path fill="#FFFFFF" d="M631,1526.977c-33.341-38.754-66.682-77.507-100.023-116.26c0-27.805,0-55.61,0-83.415
				c33.341,33.217,66.682,66.435,100.023,99.652C631,1460.295,631,1493.636,631,1526.977z"/>
			<path d="M731.023,1410.716c-33.341,38.754-66.682,77.507-100.023,116.26c0-33.341,0-66.682,0-100.023
				c33.341-33.217,66.682-66.435,100.023-99.652C731.023,1355.107,731.023,1382.911,731.023,1410.716z"/>
			<path fill="#FFFFFF" d="M831.046,1294.456c-33.341,38.754-66.682,77.507-100.023,116.26c0-27.805,0-55.61,0-83.415
				c33.341-33.217,66.682-66.435,100.023-99.652C831.046,1249.919,831.046,1272.187,831.046,1294.456z"/>
			<path d="M931.07,1178.195c-33.341,38.754-66.682,77.507-100.023,116.26c0-22.269,0-44.537,0-66.806
				c33.341-33.217,66.682-66.435,100.023-99.652C931.07,1144.73,931.07,1161.463,931.07,1178.195z"/>
			<path fill="#FFFFFF" d="M1031.093,1061.935c-33.341,38.753-66.682,77.507-100.023,116.26c0-16.732,0-33.465,0-50.197
				c33.341-33.217,66.682-66.435,100.023-99.652C1031.093,1039.542,1031.093,1050.739,1031.093,1061.935z"/>
			<path d="M1131.116,945.674c-33.341,38.754-66.682,77.507-100.023,116.261c0-11.196,0-22.392,0-33.589
				c33.341-33.217,66.682-66.435,100.023-99.652C1131.116,934.354,1131.116,940.014,1131.116,945.674z"/>
			<path fill="#FFFFFF" d="M1231.139,829.414c-33.341,38.753-66.682,77.507-100.023,116.26c0-5.66,0-11.32,0-16.98
				c33.341-33.217,66.682-66.435,100.023-99.652C1231.139,829.166,1231.139,829.29,1231.139,829.414z"/>
		</g>
		<g>
			<path d="M1131.116,962.654c33.341-44.29,66.682-88.579,100.023-132.869c0-0.124,0-0.248,0-0.371
				c-33.341,38.753-66.682,77.507-100.023,116.26C1131.116,951.334,1131.116,956.994,1131.116,962.654z"/>
			<path fill="#FFFFFF" d="M1031.093,1095.524c33.341-44.29,66.682-88.579,100.023-132.869c0-5.66,0-11.32,0-16.98
				c-33.341,38.754-66.682,77.507-100.023,116.261C1031.093,1073.131,1031.093,1084.327,1031.093,1095.524z"/>
			<path d="M931.07,1228.393c33.341-44.29,66.682-88.579,100.023-132.869c0-11.196,0-22.392,0-33.589
				c-33.341,38.753-66.682,77.507-100.023,116.26C931.07,1194.928,931.07,1211.66,931.07,1228.393z"/>
			<path fill="#FFFFFF" d="M831.046,1361.262c33.341-44.29,66.682-88.579,100.023-132.869c0-16.732,0-33.465,0-50.197
				c-33.341,38.754-66.682,77.507-100.023,116.26C831.046,1316.724,831.046,1338.993,831.046,1361.262z"/>
			<path d="M731.023,1494.131c33.341-44.29,66.682-88.579,100.023-132.869c0-22.269,0-44.537,0-66.806
				c-33.341,38.754-66.682,77.507-100.023,116.26C731.023,1438.521,731.023,1466.326,731.023,1494.131z"/>
			<path fill="#FFFFFF" d="M631,1627c33.341-44.29,66.682-88.579,100.023-132.869c0-27.805,0-55.61,0-83.415
				c-33.341,38.754-66.682,77.507-100.023,116.26C631,1560.318,631,1593.659,631,1627z"/>
			<path d="M530.977,1494.131C564.318,1538.421,597.659,1582.71,631,1627c0-33.341,0-66.682,0-100.023
				c-33.341-38.754-66.682-77.507-100.023-116.26C530.977,1438.521,530.977,1466.326,530.977,1494.131z"/>
			<path fill="#FFFFFF" d="M430.954,1361.262c33.341,44.29,66.682,88.579,100.023,132.869c0-27.805,0-55.61,0-83.415
				c-33.341-38.754-66.682-77.507-100.023-116.26C430.954,1316.724,430.954,1338.993,430.954,1361.262z"/>
			<path d="M330.93,1228.393c33.341,44.29,66.682,88.579,100.023,132.869c0-22.269,0-44.537,0-66.806
				c-33.341-38.753-66.682-77.507-100.023-116.26C330.93,1194.928,330.93,1211.66,330.93,1228.393z"/>
			<path fill="#FFFFFF" d="M230.907,1095.524c33.341,44.29,66.682,88.579,100.023,132.869c0-16.732,0-33.465,0-50.197
				c-33.341-38.753-66.682-77.507-100.023-116.26C230.907,1073.131,230.907,1084.327,230.907,1095.524z"/>
			<path d="M130.884,962.654c33.341,44.29,66.682,88.579,100.023,132.869c0-11.196,0-22.392,0-33.589
				c-33.341-38.754-66.682-77.507-100.023-116.261C130.884,951.334,130.884,956.994,130.884,962.654z"/>
			<path fill="#FFFFFF" d="M30.861,829.785c33.341,44.29,66.682,88.579,100.023,132.869c0-5.66,0-11.32,0-16.98
				c-33.341-38.753-66.682-77.507-100.023-116.26C30.861,829.538,30.861,829.661,30.861,829.785z"/>
		</g>
	</g>
	<g>
		<g>
			<path d="M1131.116,810.206c33.341,5.536,66.682,11.072,100.023,16.609c0,0.124,0,0.248,0,0.371c-33.341,0-66.682,0-100.023,0
				C1131.116,821.526,1131.116,815.866,1131.116,810.206z"/>
			<path fill="#FFFFFF" d="M1031.093,793.597c33.341,5.536,66.682,11.072,100.023,16.609c0,5.66,0,11.32,0,16.98
				c-33.341,0-66.682,0-100.023,0C1031.093,815.989,1031.093,804.793,1031.093,793.597z"/>
			<path d="M931.07,776.988c33.341,5.536,66.682,11.072,100.023,16.609c0,11.196,0,22.392,0,33.589c-33.341,0-66.682,0-100.023,0
				C931.07,810.453,931.07,793.721,931.07,776.988z"/>
			<path fill="#FFFFFF" d="M831.046,760.38c33.341,5.536,66.682,11.072,100.023,16.609c0,16.732,0,33.465,0,50.197
				c-33.341,0-66.682,0-100.023,0C831.046,804.917,831.046,782.648,831.046,760.38z"/>
			<path d="M731.023,743.771c33.341,5.536,66.682,11.072,100.023,16.609c0,22.269,0,44.537,0,66.806c-33.341,0-66.682,0-100.023,0
				C731.023,799.381,731.023,771.576,731.023,743.771z"/>
			<path fill="#FFFFFF" d="M631,727.162c33.341,5.536,66.682,11.072,100.023,16.609c0,27.805,0,55.61,0,83.415
				c-33.341,0-66.682,0-100.023,0C631,793.845,631,760.504,631,727.162z"/>
			<path d="M530.977,743.771c33.341-5.536,66.682-11.072,100.023-16.609c0,33.341,0,66.682,0,100.023c-33.341,0-66.682,0-100.023,0
				C530.977,799.381,530.977,771.576,530.977,743.771z"/>
			<path fill="#FFFFFF" d="M430.954,760.38c33.341-5.536,66.682-11.072,100.023-16.609c0,27.805,0,55.61,0,83.415
				c-33.341,0-66.682,0-100.023,0C430.954,804.917,430.954,782.648,430.954,760.38z"/>
			<path d="M330.93,776.988c33.341-5.536,66.682-11.072,100.023-16.609c0,22.269,0,44.537,0,66.806c-33.341,0-66.682,0-100.023,0
				C330.93,810.453,330.93,793.721,330.93,776.988z"/>
			<path fill="#FFFFFF" d="M230.907,793.597c33.341-5.536,66.682-11.072,100.023-16.609c0,16.732,0,33.465,0,50.197
				c-33.341,0-66.682,0-100.023,0C230.907,815.989,230.907,804.793,230.907,793.597z"/>
			<path d="M130.884,810.206c33.341-5.536,66.682-11.072,100.023-16.609c0,11.196,0,22.392,0,33.589c-33.341,0-66.682,0-100.023,0
				C130.884,821.526,130.884,815.866,130.884,810.206z"/>
			<path fill="#FFFFFF" d="M30.861,826.814c33.341-5.536,66.682-11.072,100.023-16.609c0,5.66,0,11.32,0,16.98
				c-33.341,0-66.682,0-100.023,0C30.861,827.062,30.861,826.938,30.861,826.814z"/>
		</g>
		<g>
			<path d="M130.884,793.226c-33.341,11.072-66.682,22.145-100.023,33.217c0,0.124,0,0.248,0,0.371
				c33.341-5.536,66.682-11.072,100.023-16.609C130.884,804.546,130.884,798.886,130.884,793.226z"/>
			<path fill="#FFFFFF" d="M230.907,760.008c-33.341,11.072-66.682,22.145-100.023,33.217c0,5.66,0,11.32,0,16.98
				c33.341-5.536,66.682-11.072,100.023-16.609C230.907,782.401,230.907,771.205,230.907,760.008z"/>
			<path d="M330.93,726.791c-33.341,11.072-66.682,22.145-100.023,33.217c0,11.196,0,22.392,0,33.589
				c33.341-5.536,66.682-11.072,100.023-16.609C330.93,760.256,330.93,743.524,330.93,726.791z"/>
			<path fill="#FFFFFF" d="M430.954,693.574c-33.341,11.072-66.682,22.145-100.023,33.217c0,16.732,0,33.465,0,50.197
				c33.341-5.536,66.682-11.072,100.023-16.609C430.954,738.111,430.954,715.842,430.954,693.574z"/>
			<path d="M530.977,660.357c-33.341,11.072-66.682,22.145-100.023,33.217c0,22.269,0,44.537,0,66.806
				c33.341-5.536,66.682-11.072,100.023-16.609C530.977,715.966,530.977,688.161,530.977,660.357z"/>
			<path fill="#FFFFFF" d="M631,627.139c-33.341,11.072-66.682,22.145-100.023,33.217c0,27.805,0,55.61,0,83.415
				c33.341-5.536,66.682-11.072,100.023-16.609C631,693.821,631,660.48,631,627.139z"/>
			<path d="M731.023,660.357c-33.341-11.072-66.682-22.145-100.023-33.217c0,33.341,0,66.682,0,100.023
				c33.341,5.536,66.682,11.072,100.023,16.609C731.023,715.966,731.023,688.161,731.023,660.357z"/>
			<path fill="#FFFFFF" d="M831.046,693.574c-33.341-11.072-66.682-22.145-100.023-33.217c0,27.805,0,55.61,0,83.415
				c33.341,5.536,66.682,11.072,100.023,16.609C831.046,738.111,831.046,715.842,831.046,693.574z"/>
			<path d="M931.07,726.791c-33.341-11.072-66.682-22.145-100.023-33.217c0,22.269,0,44.537,0,66.806
				c33.341,5.536,66.682,11.072,100.023,16.609C931.07,760.256,931.07,743.524,931.07,726.791z"/>
			<path fill="#FFFFFF" d="M1031.093,760.008c-33.341-11.072-66.682-22.145-100.023-33.217c0,16.732,0,33.465,0,50.197
				c33.341,5.536,66.682,11.072,100.023,16.609C1031.093,782.401,1031.093,771.205,1031.093,760.008z"/>
			<path d="M1131.116,793.226c-33.341-11.072-66.682-22.145-100.023-33.217c0,11.196,0,22.392,0,33.589
				c33.341,5.536,66.682,11.072,100.023,16.609C1131.116,804.546,1131.116,798.886,1131.116,793.226z"/>
			<path fill="#FFFFFF" d="M1231.139,826.443c-33.341-11.072-66.682-22.145-100.023-33.217c0,5.66,0,11.32,0,16.98
				c33.341,5.536,66.682,11.072,100.023,16.609C1231.139,826.691,1231.139,826.567,1231.139,826.443z"/>
		</g>
		<g>
			<path d="M1131.116,776.246c33.341,16.609,66.682,33.217,100.023,49.826c0,0.124,0,0.248,0,0.371
				c-33.341-11.072-66.682-22.145-100.023-33.217C1131.116,787.566,1131.116,781.906,1131.116,776.246z"/>
			<path fill="#FFFFFF" d="M1031.093,726.42c33.341,16.609,66.682,33.217,100.023,49.826c0,5.66,0,11.32,0,16.98
				c-33.341-11.072-66.682-22.145-100.023-33.217C1031.093,748.812,1031.093,737.616,1031.093,726.42z"/>
			<path d="M931.07,676.594c33.341,16.609,66.682,33.217,100.023,49.826c0,11.196,0,22.392,0,33.589
				c-33.341-11.072-66.682-22.145-100.023-33.217C931.07,710.059,931.07,693.326,931.07,676.594z"/>
			<path fill="#FFFFFF" d="M831.046,626.768c33.341,16.609,66.682,33.217,100.023,49.826c0,16.732,0,33.465,0,50.197
				c-33.341-11.072-66.682-22.145-100.023-33.217C831.046,671.305,831.046,649.037,831.046,626.768z"/>
			<path d="M731.023,576.942c33.341,16.609,66.682,33.217,100.023,49.826c0,22.269,0,44.537,0,66.806
				c-33.341-11.072-66.682-22.145-100.023-33.217C731.023,632.552,731.023,604.747,731.023,576.942z"/>
			<path fill="#FFFFFF" d="M631,527.116c33.341,16.609,66.682,33.217,100.023,49.826c0,27.805,0,55.61,0,83.415
				c-33.341-11.072-66.682-22.145-100.023-33.217C631,593.798,631,560.457,631,527.116z"/>
			<path d="M530.977,576.942c33.341-16.609,66.682-33.217,100.023-49.826c0,33.341,0,66.682,0,100.023
				c-33.341,11.072-66.682,22.145-100.023,33.217C530.977,632.552,530.977,604.747,530.977,576.942z"/>
			<path fill="#FFFFFF" d="M430.954,626.768c33.341-16.609,66.682-33.217,100.023-49.826c0,27.805,0,55.61,0,83.415
				c-33.341,11.072-66.682,22.145-100.023,33.217C430.954,671.305,430.954,649.037,430.954,626.768z"/>
			<path d="M330.93,676.594c33.341-16.609,66.682-33.217,100.023-49.826c0,22.269,0,44.537,0,66.806
				c-33.341,11.072-66.682,22.145-100.023,33.217C330.93,710.059,330.93,693.326,330.93,676.594z"/>
			<path fill="#FFFFFF" d="M230.907,726.42c33.341-16.609,66.682-33.217,100.023-49.826c0,16.732,0,33.465,0,50.197
				c-33.341,11.072-66.682,22.145-100.023,33.217C230.907,748.812,230.907,737.616,230.907,726.42z"/>
			<path d="M130.884,776.246c33.341-16.609,66.682-33.217,100.023-49.826c0,11.196,0,22.392,0,33.589
				c-33.341,11.072-66.682,22.145-100.023,33.217C130.884,787.566,130.884,781.906,130.884,776.246z"/>
			<path fill="#FFFFFF" d="M30.861,826.072c33.341-16.609,66.682-33.217,100.023-49.826c0,5.66,0,11.32,0,16.98
				c-33.341,11.072-66.682,22.145-100.023,33.217C30.861,826.319,30.861,826.195,30.861,826.072z"/>
		</g>
		<g>
			<path d="M130.884,759.266C97.543,781.41,64.202,803.555,30.861,825.7c0,0.124,0,0.248,0,0.371
				c33.341-16.609,66.682-33.217,100.023-49.826C130.884,770.586,130.884,764.926,130.884,759.266z"/>
			<path fill="#FFFFFF" d="M230.907,692.831c-33.341,22.145-66.682,44.29-100.023,66.435c0,5.66,0,11.32,0,16.98
				c33.341-16.609,66.682-33.217,100.023-49.826C230.907,715.224,230.907,704.027,230.907,692.831z"/>
			<path d="M330.93,626.397c-33.341,22.145-66.682,44.29-100.023,66.435c0,11.196,0,22.392,0,33.589
				c33.341-16.609,66.682-33.217,100.023-49.826C330.93,659.861,330.93,643.129,330.93,626.397z"/>
			<path fill="#FFFFFF" d="M430.954,559.962c-33.341,22.145-66.682,44.29-100.023,66.435c0,16.732,0,33.465,0,50.197
				c33.341-16.609,66.682-33.217,100.023-49.826C430.954,604.499,430.954,582.231,430.954,559.962z"/>
			<path d="M530.977,493.527c-33.341,22.145-66.682,44.29-100.023,66.435c0,22.269,0,44.537,0,66.806
				c33.341-16.609,66.682-33.217,100.023-49.826C530.977,549.137,530.977,521.332,530.977,493.527z"/>
			<path fill="#FFFFFF" d="M631,427.093c-33.341,22.145-66.682,44.29-100.023,66.435c0,27.805,0,55.61,0,83.415
				c33.341-16.609,66.682-33.217,100.023-49.826C631,493.775,631,460.434,631,427.093z"/>
			<path d="M731.023,493.527c-33.341-22.145-66.682-44.29-100.023-66.435c0,33.341,0,66.682,0,100.023
				c33.341,16.609,66.682,33.217,100.023,49.826C731.023,549.137,731.023,521.332,731.023,493.527z"/>
			<path fill="#FFFFFF" d="M831.046,559.962c-33.341-22.145-66.682-44.29-100.023-66.435c0,27.805,0,55.61,0,83.415
				c33.341,16.609,66.682,33.217,100.023,49.826C831.046,604.499,831.046,582.231,831.046,559.962z"/>
			<path d="M931.07,626.397c-33.341-22.145-66.682-44.29-100.023-66.435c0,22.269,0,44.537,0,66.806
				c33.341,16.609,66.682,33.217,100.023,49.826C931.07,659.861,931.07,643.129,931.07,626.397z"/>
			<path fill="#FFFFFF" d="M1031.093,692.831c-33.341-22.145-66.682-44.29-100.023-66.435c0,16.732,0,33.465,0,50.197
				c33.341,16.609,66.682,33.217,100.023,49.826C1031.093,715.224,1031.093,704.027,1031.093,692.831z"/>
			<path d="M1131.116,759.266c-33.341-22.145-66.682-44.29-100.023-66.435c0,11.196,0,22.392,0,33.589
				c33.341,16.609,66.682,33.217,100.023,49.826C1131.116,770.586,1131.116,764.926,1131.116,759.266z"/>
			<path fill="#FFFFFF" d="M1231.139,825.7c-33.341-22.145-66.682-44.29-100.023-66.435c0,5.66,0,11.32,0,16.98
				c33.341,16.609,66.682,33.217,100.023,49.826C1231.139,825.948,1231.139,825.824,1231.139,825.7z"/>
		</g>
		<g>
			<path d="M1131.116,742.286c33.341,27.681,66.682,55.362,100.023,83.043c0,0.124,0,0.248,0,0.371
				c-33.341-22.145-66.682-44.29-100.023-66.435C1131.116,753.606,1131.116,747.946,1131.116,742.286z"/>
			<path fill="#FFFFFF" d="M1031.093,659.242c33.341,27.681,66.682,55.362,100.023,83.043c0,5.66,0,11.32,0,16.98
				c-33.341-22.145-66.682-44.29-100.023-66.435C1031.093,681.635,1031.093,670.439,1031.093,659.242z"/>
			<path d="M931.07,576.199c33.341,27.681,66.682,55.362,100.023,83.043c0,11.196,0,22.392,0,33.589
				c-33.341-22.145-66.682-44.29-100.023-66.435C931.07,609.664,931.07,592.932,931.07,576.199z"/>
			<path fill="#FFFFFF" d="M831.046,493.156c33.341,27.681,66.682,55.362,100.023,83.043c0,16.732,0,33.465,0,50.197
				c-33.341-22.145-66.682-44.29-100.023-66.435C831.046,537.693,831.046,515.425,831.046,493.156z"/>
			<path d="M731.023,410.113c33.341,27.681,66.682,55.362,100.023,83.043c0,22.269,0,44.537,0,66.806
				c-33.341-22.145-66.682-44.29-100.023-66.435C731.023,465.723,731.023,437.918,731.023,410.113z"/>
			<path fill="#FFFFFF" d="M631,327.07c33.341,27.681,66.682,55.362,100.023,83.043c0,27.805,0,55.61,0,83.415
				c-33.341-22.145-66.682-44.29-100.023-66.435C631,393.752,631,360.411,631,327.07z"/>
			<path d="M530.977,410.113c33.341-27.681,66.682-55.362,100.023-83.043c0,33.341,0,66.682,0,100.023
				c-33.341,22.145-66.682,44.29-100.023,66.435C530.977,465.723,530.977,437.918,530.977,410.113z"/>
			<path fill="#FFFFFF" d="M430.954,493.156c33.341-27.681,66.682-55.362,100.023-83.043c0,27.805,0,55.61,0,83.415
				c-33.341,22.145-66.682,44.29-100.023,66.435C430.954,537.693,430.954,515.425,430.954,493.156z"/>
			<path d="M330.93,576.199c33.341-27.681,66.682-55.362,100.023-83.043c0,22.269,0,44.537,0,66.806
				c-33.341,22.145-66.682,44.29-100.023,66.435C330.93,609.664,330.93,592.932,330.93,576.199z"/>
			<path fill="#FFFFFF" d="M230.907,659.242c33.341-27.681,66.682-55.362,100.023-83.043c0,16.732,0,33.465,0,50.197
				c-33.341,22.145-66.682,44.29-100.023,66.435C230.907,681.635,230.907,670.439,230.907,659.242z"/>
			<path d="M130.884,742.286c33.341-27.681,66.682-55.362,100.023-83.043c0,11.196,0,22.392,0,33.589
				c-33.341,22.145-66.682,44.29-100.023,66.435C130.884,753.606,130.884,747.946,130.884,742.286z"/>
			<path fill="#FFFFFF" d="M30.861,825.329c33.341-27.681,66.682-55.362,100.023-83.043c0,5.66,0,11.32,0,16.98
				C97.543,781.41,64.202,803.555,30.861,825.7C30.861,825.576,30.861,825.453,30.861,825.329z"/>
		</g>
		<g>
			<path d="M130.884,725.306c-33.341,33.217-66.682,66.435-100.023,99.652c0,0.124,0,0.248,0,0.371
				c33.341-27.681,66.682-55.362,100.023-83.043C130.884,736.626,130.884,730.966,130.884,725.306z"/>
			<path fill="#FFFFFF" d="M230.907,625.654c-33.341,33.217-66.682,66.435-100.023,99.652c0,5.66,0,11.32,0,16.98
				c33.341-27.681,66.682-55.362,100.023-83.043C230.907,648.046,230.907,636.85,230.907,625.654z"/>
			<path d="M330.93,526.002c-33.341,33.217-66.682,66.435-100.023,99.652c0,11.196,0,22.392,0,33.589
				c33.341-27.681,66.682-55.362,100.023-83.043C330.93,559.467,330.93,542.734,330.93,526.002z"/>
			<path fill="#FFFFFF" d="M430.954,426.35c-33.341,33.217-66.682,66.435-100.023,99.652c0,16.732,0,33.465,0,50.197
				c33.341-27.681,66.682-55.362,100.023-83.043C430.954,470.887,430.954,448.619,430.954,426.35z"/>
			<path d="M530.977,326.698c-33.341,33.217-66.682,66.435-100.023,99.652c0,22.269,0,44.537,0,66.806
				c33.341-27.681,66.682-55.362,100.023-83.043C530.977,382.308,530.977,354.503,530.977,326.698z"/>
			<path fill="#FFFFFF" d="M631,227.046c-33.341,33.217-66.682,66.435-100.023,99.652c0,27.805,0,55.61,0,83.415
				c33.341-27.681,66.682-55.362,100.023-83.043C631,293.729,631,260.387,631,227.046z"/>
			<path d="M731.023,326.698c-33.341-33.217-66.682-66.435-100.023-99.652c0,33.341,0,66.682,0,100.023
				c33.341,27.681,66.682,55.362,100.023,83.043C731.023,382.308,731.023,354.503,731.023,326.698z"/>
			<path fill="#FFFFFF" d="M831.046,426.35c-33.341-33.217-66.682-66.435-100.023-99.652c0,27.805,0,55.61,0,83.415
				c33.341,27.681,66.682,55.362,100.023,83.043C831.046,470.887,831.046,448.619,831.046,426.35z"/>
			<path d="M931.07,526.002c-33.341-33.217-66.682-66.435-100.023-99.652c0,22.269,0,44.537,0,66.806
				c33.341,27.681,66.682,55.362,100.023,83.043C931.07,559.467,931.07,542.734,931.07,526.002z"/>
			<path fill="#FFFFFF" d="M1031.093,625.654c-33.341-33.217-66.682-66.435-100.023-99.652c0,16.732,0,33.465,0,50.197
				c33.341,27.681,66.682,55.362,100.023,83.043C1031.093,648.046,1031.093,636.85,1031.093,625.654z"/>
			<path d="M1131.116,725.306c-33.341-33.217-66.682-66.435-100.023-99.652c0,11.196,0,22.392,0,33.589
				c33.341,27.681,66.682,55.362,100.023,83.043C1131.116,736.626,1131.116,730.966,1131.116,725.306z"/>
			<path fill="#FFFFFF" d="M1231.139,824.957c-33.341-33.217-66.682-66.435-100.023-99.652c0,5.66,0,11.32,0,16.98
				c33.341,27.681,66.682,55.362,100.023,83.043C1231.139,825.205,1231.139,825.081,1231.139,824.957z"/>
		</g>
		<g>
			<path d="M1131.116,708.326c33.341,38.753,66.682,77.507,100.023,116.26c0,0.124,0,0.248,0,0.371
				c-33.341-33.217-66.682-66.435-100.023-99.652C1131.116,719.646,1131.116,713.986,1131.116,708.326z"/>
			<path fill="#FFFFFF" d="M1031.093,592.065c33.341,38.753,66.682,77.507,100.023,116.26c0,5.66,0,11.32,0,16.98
				c-33.341-33.217-66.682-66.435-100.023-99.652C1031.093,614.458,1031.093,603.261,1031.093,592.065z"/>
			<path d="M931.07,475.805c33.341,38.753,66.682,77.507,100.023,116.26c0,11.196,0,22.392,0,33.589
				c-33.341-33.217-66.682-66.435-100.023-99.652C931.07,509.27,931.07,492.537,931.07,475.805z"/>
			<path fill="#FFFFFF" d="M831.046,359.544c33.341,38.754,66.682,77.507,100.023,116.26c0,16.732,0,33.465,0,50.197
				c-33.341-33.217-66.682-66.435-100.023-99.652C831.046,404.081,831.046,381.813,831.046,359.544z"/>
			<path d="M731.023,243.284c33.341,38.753,66.682,77.507,100.023,116.26c0,22.269,0,44.537,0,66.806
				c-33.341-33.217-66.682-66.435-100.023-99.652C731.023,298.893,731.023,271.089,731.023,243.284z"/>
			<path fill="#FFFFFF" d="M631,127.023c33.341,38.753,66.682,77.507,100.023,116.26c0,27.805,0,55.61,0,83.415
				c-33.341-33.217-66.682-66.435-100.023-99.652C631,193.705,631,160.364,631,127.023z"/>
			<path d="M530.977,243.284c33.341-38.753,66.682-77.507,100.023-116.26c0,33.341,0,66.682,0,100.023
				c-33.341,33.217-66.682,66.435-100.023,99.652C530.977,298.893,530.977,271.089,530.977,243.284z"/>
			<path fill="#FFFFFF" d="M430.954,359.544c33.341-38.753,66.682-77.507,100.023-116.26c0,27.805,0,55.61,0,83.415
				c-33.341,33.217-66.682,66.435-100.023,99.652C430.954,404.081,430.954,381.813,430.954,359.544z"/>
			<path d="M330.93,475.805c33.341-38.754,66.682-77.507,100.023-116.26c0,22.269,0,44.537,0,66.806
				c-33.341,33.217-66.682,66.435-100.023,99.652C330.93,509.27,330.93,492.537,330.93,475.805z"/>
			<path fill="#FFFFFF" d="M230.907,592.065c33.341-38.753,66.682-77.507,100.023-116.26c0,16.732,0,33.465,0,50.197
				c-33.341,33.217-66.682,66.435-100.023,99.652C230.907,614.458,230.907,603.261,230.907,592.065z"/>
			<path d="M130.884,708.326c33.341-38.754,66.682-77.507,100.023-116.26c0,11.196,0,22.392,0,33.589
				c-33.341,33.217-66.682,66.435-100.023,99.652C130.884,719.646,130.884,713.986,130.884,708.326z"/>
			<path fill="#FFFFFF" d="M30.861,824.586c33.341-38.753,66.682-77.507,100.023-116.26c0,5.66,0,11.32,0,16.98
				c-33.341,33.217-66.682,66.435-100.023,99.652C30.861,824.834,30.861,824.71,30.861,824.586z"/>
		</g>
		<g>
			<path d="M130.884,691.346c-33.341,44.29-66.682,88.579-100.023,132.869c0,0.124,0,0.248,0,0.371
				c33.341-38.753,66.682-77.507,100.023-116.26C130.884,702.666,130.884,697.006,130.884,691.346z"/>
			<path fill="#FFFFFF" d="M230.907,558.476c-33.341,44.29-66.682,88.579-100.023,132.869c0,5.66,0,11.32,0,16.98
				c33.341-38.754,66.682-77.507,100.023-116.26C230.907,580.869,230.907,569.673,230.907,558.476z"/>
			<path d="M330.93,425.607c-33.341,44.29-66.682,88.579-100.023,132.869c0,11.196,0,22.392,0,33.589
				c33.341-38.753,66.682-77.507,100.023-116.26C330.93,459.072,330.93,442.34,330.93,425.607z"/>
			<path fill="#FFFFFF" d="M430.954,292.738c-33.341,44.29-66.682,88.579-100.023,132.869c0,16.732,0,33.465,0,50.197
				c33.341-38.754,66.682-77.507,100.023-116.26C430.954,337.276,430.954,315.007,430.954,292.738z"/>
			<path d="M530.977,159.869c-33.341,44.29-66.682,88.579-100.023,132.869c0,22.269,0,44.537,0,66.806
				c33.341-38.753,66.682-77.507,100.023-116.26C530.977,215.479,530.977,187.674,530.977,159.869z"/>
			<path fill="#FFFFFF" d="M631,27c-33.341,44.29-66.682,88.579-100.023,132.869c0,27.805,0,55.61,0,83.415
				c33.341-38.753,66.682-77.507,100.023-116.26C631,93.682,631,60.341,631,27z"/>
			<path d="M731.023,159.869C697.682,115.579,664.341,71.29,631,27c0,33.341,0,66.682,0,100.023
				c33.341,38.753,66.682,77.507,100.023,116.26C731.023,215.479,731.023,187.674,731.023,159.869z"/>
			<path fill="#FFFFFF" d="M831.046,292.738c-33.341-44.29-66.682-88.579-100.023-132.869c0,27.805,0,55.61,0,83.415
				c33.341,38.753,66.682,77.507,100.023,116.26C831.046,337.276,831.046,315.007,831.046,292.738z"/>
			<path d="M931.07,425.607c-33.341-44.29-66.682-88.579-100.023-132.869c0,22.269,0,44.537,0,66.806
				c33.341,38.754,66.682,77.507,100.023,116.26C931.07,459.072,931.07,442.34,931.07,425.607z"/>
			<path fill="#FFFFFF" d="M1031.093,558.476c-33.341-44.29-66.682-88.579-100.023-132.869c0,16.732,0,33.465,0,50.197
				c33.341,38.753,66.682,77.507,100.023,116.26C1031.093,580.869,1031.093,569.673,1031.093,558.476z"/>
			<path d="M1131.116,691.346c-33.341-44.29-66.682-88.579-100.023-132.869c0,11.196,0,22.392,0,33.589
				c33.341,38.753,66.682,77.507,100.023,116.26C1131.116,702.666,1131.116,697.006,1131.116,691.346z"/>
			<path fill="#FFFFFF" d="M1231.139,824.215c-33.341-44.29-66.682-88.579-100.023-132.869c0,5.66,0,11.32,0,16.98
				c33.341,38.753,66.682,77.507,100.023,116.26C1231.139,824.462,1231.139,824.339,1231.139,824.215z"/>
		</g>
	</g>
</g>
</svg>
